<svg width="23" height="40" viewBox="0 0 23 40" fill="none" xmlns="http://www.w3.org/2000/svg">
<path d="M0.895508 1.04175C0.374674 1.56258 0.114258 2.17925 0.114258 2.89175C0.114258 3.60425 0.374674 4.22022 0.895508 4.73967L16.1559 20.0001L0.843424 35.3126C0.357313 35.7987 0.114258 36.4063 0.114258 37.1355C0.114258 37.8647 0.374674 38.4897 0.895508 39.0105C1.41634 39.5313 2.03301 39.7917 2.74551 39.7917C3.45801 39.7917 4.07398 39.5313 4.59342 39.0105L22.0934 21.4584C22.3018 21.2501 22.4497 21.0244 22.5372 20.7813C22.6247 20.5383 22.6677 20.2779 22.6663 20.0001C22.6663 19.7223 22.6226 19.4619 22.5351 19.2188C22.4476 18.9758 22.3004 18.7501 22.0934 18.5417L4.54134 0.989666C4.05523 0.503555 3.45592 0.260498 2.74342 0.260498C2.03092 0.260498 1.41495 0.520916 0.895508 1.04175Z" fill="#FE3700"/>
</svg>
