<svg width="23" height="40" viewBox="0 0 23 40" fill="none" xmlns="http://www.w3.org/2000/svg">
<path d="M22.104 1.04175C22.6248 1.56258 22.8853 2.17925 22.8853 2.89175C22.8853 3.60425 22.6248 4.22022 22.104 4.73966L6.84359 20.0001L22.1561 35.3126C22.6422 35.7987 22.8853 36.4063 22.8853 37.1355C22.8853 37.8647 22.6248 38.4897 22.104 39.0105C21.5832 39.5313 20.9665 39.7917 20.254 39.7917C19.5415 39.7917 18.9255 39.5313 18.4061 39.0105L0.906086 21.4584C0.697752 21.2501 0.549837 21.0244 0.462337 20.7813C0.374837 20.5383 0.331781 20.2779 0.33317 20.0001C0.33317 19.7223 0.376919 19.4619 0.464419 19.2188C0.551919 18.9758 0.699141 18.7501 0.906086 18.5417L18.4582 0.989666C18.9443 0.503555 19.5436 0.260499 20.2561 0.260499C20.9686 0.260499 21.5846 0.520915 22.104 1.04175Z" fill="#FE3700"/>
</svg>
