<svg width="45" height="45" viewBox="0 0 45 45" fill="none" xmlns="http://www.w3.org/2000/svg">
<path d="M35.758 9.24193C34.0225 7.49266 31.9572 6.10506 29.6818 5.15947C27.4063 4.21388 24.9659 3.7291 22.5018 3.73318C20.0371 3.72932 17.5962 4.2142 15.3201 5.15976C13.0441 6.10532 10.9781 7.4928 9.24176 9.24193C1.93113 16.5507 1.93113 28.4476 9.24176 35.7582C10.9782 37.5078 13.0444 38.8956 15.3208 39.8411C17.5972 40.7867 20.0386 41.2713 22.5036 41.2669C24.9676 41.2713 27.408 40.7868 29.6834 39.8415C31.9589 38.8962 34.0242 37.509 35.7599 35.7601C43.0705 28.4513 43.0705 16.5544 35.758 9.24193ZM22.8393 7.50005H22.1661C22.2805 7.49818 22.3893 7.48318 22.5036 7.48318C22.618 7.48318 22.7249 7.49818 22.8393 7.50005ZM34.2055 31.8751H29.9999L27.6411 36.5926C25.9957 37.2005 24.2559 37.5134 22.5018 37.5169C20.7444 37.5137 19.0013 37.2001 17.353 36.5907L14.9999 31.8938H10.8093C9.2632 29.9717 8.21765 27.6964 7.76613 25.2713L11.2499 20.6251L8.96988 16.0632C9.6974 14.5155 10.6863 13.1049 11.893 11.8932C13.582 10.1983 15.6522 8.93239 17.9305 8.2013L22.4999 11.2501L27.0711 8.20318C29.3488 8.93478 31.4187 10.1999 33.1086 11.8932C34.3141 13.1034 35.3023 14.5121 36.0299 16.0576L33.7499 20.6251L37.2336 25.2713C36.7842 27.6886 35.7439 29.9571 34.2055 31.8751Z" fill="#F24E1E"/>
<path d="M15.9375 20.625L18.75 28.125H26.25L29.0625 20.625L22.5 15.9375L15.9375 20.625Z" fill="#F24E1E"/>
</svg>
