<svg width="122" height="85" viewBox="0 0 122 85" fill="none" xmlns="http://www.w3.org/2000/svg">
<path d="M1.74 58L10.14 16H18.06L30 45.76L25.8 45.7L49.08 16H57.42L49.08 58H39.96L45.54 29.86H47.4L28.86 53.56H24.54L14.64 29.8L16.44 29.98L10.86 58H1.74ZM62.8847 58L70.5047 19.84L73.9247 23.8H61.3247L62.8847 16H81.0047L72.6047 58H62.8847ZM98.7408 58.72C95.6208 58.72 92.9208 58.1 90.6408 56.86C88.4008 55.58 86.6608 53.76 85.4208 51.4C84.1808 49 83.5608 46.14 83.5608 42.82C83.5608 39.02 84.0808 35.46 85.1208 32.14C86.2008 28.82 87.7008 25.9 89.6208 23.38C91.5408 20.82 93.8408 18.84 96.5208 17.44C99.2408 16 102.221 15.28 105.461 15.28C108.581 15.28 111.261 15.92 113.501 17.2C115.781 18.44 117.541 20.24 118.781 22.6C120.021 24.96 120.641 27.82 120.641 31.18C120.641 34.98 120.101 38.54 119.021 41.86C117.981 45.18 116.501 48.12 114.581 50.68C112.661 53.2 110.361 55.18 107.681 56.62C105.001 58.02 102.021 58.72 98.7408 58.72ZM99.6408 50.5C101.481 50.5 103.101 49.9 104.501 48.7C105.901 47.46 107.061 45.86 107.981 43.9C108.941 41.94 109.661 39.86 110.141 37.66C110.621 35.46 110.861 33.38 110.861 31.42C110.861 28.66 110.301 26.66 109.181 25.42C108.061 24.14 106.521 23.5 104.561 23.5C102.721 23.5 101.101 24.12 99.7008 25.36C98.3008 26.56 97.1208 28.14 96.1608 30.1C95.2408 32.06 94.5408 34.14 94.0608 36.34C93.5808 38.54 93.3408 40.62 93.3408 42.58C93.3408 45.3 93.9008 47.3 95.0208 48.58C96.1808 49.86 97.7208 50.5 99.6408 50.5Z" fill="#FE3700"/>
<path d="M10.24 71.64H16.98L16.48 74.16H9.74L10.24 71.64ZM9.32 77.4H16.96L16.42 80H5.58L8.38 66H18.96L18.42 68.6H11.08L9.32 77.4ZM23.878 80.24C23.118 80.24 22.378 80.1667 21.658 80.02C20.9513 79.8867 20.3046 79.7 19.718 79.46C19.1446 79.22 18.658 78.96 18.258 78.68L19.578 76.18C20.018 76.4867 20.4846 76.7533 20.978 76.98C21.4846 77.1933 22.0113 77.36 22.558 77.48C23.1046 77.5867 23.6513 77.64 24.198 77.64C24.798 77.64 25.3113 77.5733 25.738 77.44C26.178 77.3067 26.5113 77.12 26.738 76.88C26.978 76.64 27.098 76.3467 27.098 76C27.098 75.68 26.9713 75.42 26.718 75.22C26.4646 75.02 26.1313 74.8533 25.718 74.72C25.318 74.5733 24.8713 74.4333 24.378 74.3C23.8846 74.1667 23.3846 74.0133 22.878 73.84C22.3846 73.6533 21.9313 73.4267 21.518 73.16C21.118 72.88 20.7913 72.5267 20.538 72.1C20.2846 71.6733 20.158 71.14 20.158 70.5C20.158 69.54 20.418 68.7067 20.938 68C21.4713 67.2933 22.218 66.7467 23.178 66.36C24.138 65.96 25.2646 65.76 26.558 65.76C27.5046 65.76 28.398 65.8667 29.238 66.08C30.078 66.28 30.798 66.5733 31.398 66.96L30.178 69.44C29.6446 69.08 29.0513 68.8133 28.398 68.64C27.7446 68.4533 27.0713 68.36 26.378 68.36C25.7513 68.36 25.2113 68.4333 24.758 68.58C24.318 68.7267 23.978 68.9333 23.738 69.2C23.5113 69.4533 23.398 69.7467 23.398 70.08C23.398 70.4133 23.518 70.6867 23.758 70.9C24.0113 71.1 24.3446 71.2733 24.758 71.42C25.1713 71.5533 25.6246 71.6867 26.118 71.82C26.6113 71.9533 27.1046 72.1067 27.598 72.28C28.0913 72.4533 28.5446 72.6733 28.958 72.94C29.3713 73.2067 29.7046 73.5467 29.958 73.96C30.2113 74.36 30.338 74.8667 30.338 75.48C30.338 76.44 30.0713 77.28 29.538 78C29.0046 78.7067 28.2513 79.26 27.278 79.66C26.318 80.0467 25.1846 80.24 23.878 80.24ZM31.7519 80L34.5519 66H40.2119C41.9585 66 43.3052 66.3867 44.2519 67.16C45.2119 67.92 45.6919 68.9867 45.6919 70.36C45.6919 71.5333 45.4185 72.56 44.8719 73.44C44.3252 74.3067 43.5385 74.9733 42.5119 75.44C41.4985 75.9067 40.2919 76.14 38.8919 76.14H34.3519L36.0719 74.66L35.0119 80H31.7519ZM35.9919 75.04L34.8519 73.5H39.0319C40.0985 73.5 40.9252 73.26 41.5119 72.78C42.1119 72.2867 42.4119 71.5733 42.4119 70.64C42.4119 69.96 42.1852 69.46 41.7319 69.14C41.2785 68.8067 40.6385 68.64 39.8119 68.64H35.8719L37.5919 67.06L35.9919 75.04ZM53.6603 80.24C52.247 80.24 51.027 79.9867 50.0003 79.48C48.987 78.96 48.207 78.2467 47.6603 77.34C47.1136 76.42 46.8403 75.36 46.8403 74.16C46.8403 72.96 47.047 71.8533 47.4603 70.84C47.8736 69.8133 48.4603 68.9267 49.2203 68.18C49.9936 67.42 50.907 66.8267 51.9603 66.4C53.027 65.9733 54.207 65.76 55.5003 65.76C56.9136 65.76 58.127 66.02 59.1403 66.54C60.167 67.0467 60.9536 67.76 61.5003 68.68C62.047 69.5867 62.3203 70.64 62.3203 71.84C62.3203 73.04 62.1136 74.1533 61.7003 75.18C61.287 76.1933 60.6936 77.08 59.9203 77.84C59.1603 78.5867 58.247 79.1733 57.1803 79.6C56.127 80.0267 54.9536 80.24 53.6603 80.24ZM53.9403 77.48C54.727 77.48 55.4336 77.34 56.0603 77.06C56.7003 76.7667 57.2403 76.3667 57.6803 75.86C58.1203 75.3533 58.4536 74.7733 58.6803 74.12C58.9203 73.4533 59.0403 72.7533 59.0403 72.02C59.0403 71.3267 58.8936 70.72 58.6003 70.2C58.307 69.6667 57.8736 69.2533 57.3003 68.96C56.7403 68.6667 56.047 68.52 55.2203 68.52C54.4336 68.52 53.727 68.6667 53.1003 68.96C52.4736 69.24 51.9336 69.6333 51.4803 70.14C51.0403 70.6467 50.7003 71.2333 50.4603 71.9C50.2336 72.5533 50.1203 73.2467 50.1203 73.98C50.1203 74.6733 50.267 75.2867 50.5603 75.82C50.867 76.34 51.3003 76.7467 51.8603 77.04C52.4336 77.3333 53.127 77.48 53.9403 77.48ZM63.2753 80L66.0753 66H71.7753C73.522 66 74.8686 66.38 75.8153 67.14C76.7753 67.9 77.2553 68.9667 77.2553 70.34C77.2553 71.5133 76.9753 72.5333 76.4153 73.4C75.8686 74.2533 75.082 74.9133 74.0553 75.38C73.042 75.8467 71.842 76.08 70.4553 76.08H65.8953L67.5953 74.66L66.5353 80H63.2753ZM72.2753 80L69.4153 74.92H72.8153L75.6953 80H72.2753ZM67.5153 75.04L66.3953 73.5H70.5753C71.6553 73.5 72.4886 73.26 73.0753 72.78C73.6753 72.2867 73.9753 71.5733 73.9753 70.64C73.9753 69.96 73.742 69.46 73.2753 69.14C72.822 68.8067 72.182 68.64 71.3553 68.64H67.4153L69.1153 67.06L67.5153 75.04ZM80.687 80L82.947 68.64H78.467L79.007 66H91.207L90.667 68.64H86.207L83.927 80H80.687ZM94.8103 71.64H101.55L101.05 74.16H94.3103L94.8103 71.64ZM93.8903 77.4H101.53L100.99 80H90.1503L92.9503 66H103.53L102.99 68.6H95.6503L93.8903 77.4ZM108.448 80.24C107.688 80.24 106.948 80.1667 106.228 80.02C105.522 79.8867 104.875 79.7 104.288 79.46C103.715 79.22 103.228 78.96 102.828 78.68L104.148 76.18C104.588 76.4867 105.055 76.7533 105.548 76.98C106.055 77.1933 106.582 77.36 107.128 77.48C107.675 77.5867 108.222 77.64 108.768 77.64C109.368 77.64 109.882 77.5733 110.308 77.44C110.748 77.3067 111.082 77.12 111.308 76.88C111.548 76.64 111.668 76.3467 111.668 76C111.668 75.68 111.542 75.42 111.288 75.22C111.035 75.02 110.702 74.8533 110.288 74.72C109.888 74.5733 109.442 74.4333 108.948 74.3C108.455 74.1667 107.955 74.0133 107.448 73.84C106.955 73.6533 106.502 73.4267 106.088 73.16C105.688 72.88 105.362 72.5267 105.108 72.1C104.855 71.6733 104.728 71.14 104.728 70.5C104.728 69.54 104.988 68.7067 105.508 68C106.042 67.2933 106.788 66.7467 107.748 66.36C108.708 65.96 109.835 65.76 111.128 65.76C112.075 65.76 112.968 65.8667 113.808 66.08C114.648 66.28 115.368 66.5733 115.968 66.96L114.748 69.44C114.215 69.08 113.622 68.8133 112.968 68.64C112.315 68.4533 111.642 68.36 110.948 68.36C110.322 68.36 109.782 68.4333 109.328 68.58C108.888 68.7267 108.548 68.9333 108.308 69.2C108.082 69.4533 107.968 69.7467 107.968 70.08C107.968 70.4133 108.088 70.6867 108.328 70.9C108.582 71.1 108.915 71.2733 109.328 71.42C109.742 71.5533 110.195 71.6867 110.688 71.82C111.182 71.9533 111.675 72.1067 112.168 72.28C112.662 72.4533 113.115 72.6733 113.528 72.94C113.942 73.2067 114.275 73.5467 114.528 73.96C114.782 74.36 114.908 74.8667 114.908 75.48C114.908 76.44 114.642 77.28 114.108 78C113.575 78.7067 112.822 79.26 111.848 79.66C110.888 80.0467 109.755 80.24 108.448 80.24Z" fill="#FE3700"/>
</svg>
