<svg width="42" height="42" viewBox="0 0 42 42" fill="none" xmlns="http://www.w3.org/2000/svg">
<mask id="mask0_121_255" style="mask-type:luminance" maskUnits="userSpaceOnUse" x="0" y="0" width="42" height="42">
<path d="M22 16C25.866 16 29 12.866 29 9C29 5.13401 25.866 2 22 2C18.134 2 15 5.13401 15 9C15 12.866 18.134 16 22 16Z" fill="#555555" stroke="white" stroke-width="4" stroke-linecap="round" stroke-linejoin="round"/>
<path d="M2 39C2 30.163 10.059 23 20 23" stroke="white" stroke-width="4" stroke-linecap="round" stroke-linejoin="round"/>
<path d="M29.85 26C27.724 26 26 28.009 26 30.486C26 34.973 30.55 39.051 33 40C35.45 39.051 40 34.973 40 30.486C40 28.01 38.276 26 36.15 26C34.848 26 33.697 26.753 33 27.906C32.303 26.753 31.152 26 29.85 26Z" fill="#555555" stroke="white" stroke-width="4" stroke-linecap="round" stroke-linejoin="round"/>
</mask>
<g mask="url(#mask0_121_255)">
<path d="M-2 -2H46V46H-2V-2Z" fill="#F24E1E"/>
</g>
</svg>
