<svg width="50" height="50" viewBox="0 0 50 50" fill="none" xmlns="http://www.w3.org/2000/svg">
<path d="M42.3537 34.3761L32.9757 24.9991L42.3507 15.6231C42.443 15.5307 42.5163 15.4211 42.5663 15.3004C42.6163 15.1797 42.642 15.0504 42.642 14.9198C42.642 14.7892 42.6163 14.6599 42.5663 14.5392C42.5163 14.4185 42.443 14.3089 42.3507 14.2166L35.7832 7.64756C35.5966 7.461 35.3435 7.3562 35.0797 7.3562C34.8158 7.3562 34.5628 7.461 34.3762 7.64756L24.9997 17.0236L15.6247 7.64756C15.2517 7.27406 14.5912 7.27406 14.2177 7.64756L7.64868 14.2156C7.46237 14.4023 7.35774 14.6553 7.35774 14.9191C7.35774 15.1828 7.46237 15.4358 7.64868 15.6226L17.0252 24.9991L7.64718 34.3766C7.46099 34.5633 7.35645 34.8163 7.35645 35.0801C7.35645 35.3438 7.46099 35.5968 7.64718 35.7836L14.2152 42.3521C14.3075 42.4445 14.4172 42.5179 14.5379 42.568C14.6586 42.6181 14.788 42.6438 14.9187 42.6438C15.0494 42.6438 15.1788 42.6181 15.2995 42.568C15.4202 42.5179 15.5299 42.4445 15.6222 42.3521L24.9997 32.9746L34.3777 42.3516C34.5722 42.5456 34.8257 42.6431 35.0812 42.6431C35.3367 42.6431 35.5907 42.5456 35.7852 42.3516L42.3542 35.7831C42.5407 35.5964 42.6454 35.3433 42.6453 35.0795C42.6452 34.8156 42.5403 34.5626 42.3537 34.3761Z" fill="#F24E1E"/>
</svg>
